<?xml version="1.0" standalone="no"?><!DOCTYPE svg PUBLIC "-//W3C//DTD SVG 1.1//EN" "http://www.w3.org/Graphics/SVG/1.1/DTD/svg11.dtd"><svg t="1673450642388" class="icon" viewBox="0 0 1024 1024" version="1.1" xmlns="http://www.w3.org/2000/svg" p-id="3774" xmlns:xlink="http://www.w3.org/1999/xlink" width="200" height="200"><path d="M 740.966 126.976 H 303.514 c -34.4064 0 -62.2592 27.8528 -62.2592 62.2592 v 556.851 c 0 34.4064 27.8528 62.2592 62.2592 62.2592 h 156.467 v 115.507 a 34.5088 34.5088 0 0 0 34.4064 34.4064 c 6.144 0 12.288 -1.6384 17.8176 -4.9152 l 246.579 -147.866 a 62.0544 62.0544 0 0 0 44.6464 -59.392 V 189.235 c 0 -34.4064 -28.0576 -62.2592 -62.464 -62.2592 Z m -260.506 176.333 c -12.6976 7.5776 -20.6848 21.504 -20.6848 36.4544 v 423.731 h -156.467 c -9.4208 0 -17.2032 -7.7824 -17.2032 -17.2032 V 189.235 c 0 -9.4208 7.7824 -17.2032 17.2032 -17.2032 h 396.083 l -218.931 131.277 Z m 24.576 601.907 V 341.197 l 227.123 -136.192 c 7.7824 -4.7104 14.7456 -1.6384 17.408 -0.2048 s 8.8064 5.9392 8.8064 14.9504 v 523.878 c 0 5.9392 -3.2768 11.6736 -8.3968 14.7456 l -8.192 4.9152 c -0.2048 0 -0.4096 0.2048 -0.6144 0.2048 v 0.2048 L 505.037 905.216 Z" p-id="3775"></path><path d="M 542.106 547.226 c -6.5536 0 -19.8656 17.8176 -19.8656 39.7312 c 0 29.9008 9.0112 39.7312 19.8656 39.7312 c 6.5536 0 19.8656 -17.8176 19.8656 -39.7312 c 0 -29.696 -8.8064 -39.7312 -19.8656 -39.7312 Z" p-id="3776"></path></svg>